<?xml version="1.0"?>
<svg xmlns="http://www.w3.org/2000/svg" xmlns:xlink="http://www.w3.org/1999/xlink" version="1.1" id="Capa_1" x="0px" y="0px" viewBox="0 0 241.133 241.133" style="enable-background:new 0 0 241.133 241.133;" xml:space="preserve" width="512px" height="512px"><g><g>
	<g>
		<path d="M12.023,178.066l80.204,42.501c5.727,4.504,12.863,6.973,20.163,6.973    c1.713,0,3.437-0.136,5.102-0.402c9.154-1.452,17.28-6.739,22.311-14.517l96.092-148.671c4.732-7.321,6.331-16.051,4.498-24.574    c-1.833-8.523-6.875-15.822-14.191-20.554c-5.292-3.421-11.411-5.227-17.688-5.227c-11.139,0-21.397,5.575-27.435,14.919    L103.9,147.917l-51.339-20.995c-5.695-4.395-12.738-6.799-19.929-6.799c-9.866,0-19.102,4.389-25.319,12.037    C-4.049,146.111-1.939,166.709,12.023,178.066z M15.744,139.019c4.15-5.102,10.307-8.023,16.883-8.023    c5.053,0,9.796,1.692,13.723,4.884l61.782,25.52l82.07-126.98c4.025-6.228,10.867-9.948,18.297-9.948    c4.183,0,8.257,1.207,11.781,3.486c10.079,6.511,12.978,20.005,6.462,30.083L130.66,206.719c-3.35,5.183-8.773,8.713-14.881,9.682    c-6.124,0.974-12.385-0.761-17.117-4.618l-80.161-42.479C9.549,161.667,8.281,148.194,15.744,139.019z" data-original="#010002" class="active-path" data-old_color="#010002" fill="#3D9ED7"/>
	</g>
</g></g> </svg>
