<?xml version="1.0"?>
    <svg xmlns="http://www.w3.org/2000/svg" id="Capa_1" enable-background="new 0 0 528 528" height="512px" viewBox="0 0 528 528" width="512px" class="">
        <g>
            <path d="m379.5 0h-231c-27.296 0-49.5 22.204-49.5 49.5v429c0 27.296 22.204 49.5 49.5 49.5h231c27.296 0 49.5-22.204 49.5-49.5v-429c0-27.296-22.204-49.5-49.5-49.5zm-231 33h231c9.104 0 16.5 7.396 16.5 16.5v346.5h-264v-346.5c0-9.104 7.396-16.5 16.5-16.5zm231 462h-231c-9.104 0-16.5-7.396-16.5-16.5v-49.5h264v49.5c0 9.104-7.396 16.5-16.5 16.5z" data-original="#000000" class="active-path" data-old_color="#000000"/>
            <path d="m275.667 450.333c6.444 6.444 6.444 16.891 0 23.335s-16.891 6.444-23.335 0-6.444-16.891 0-23.335 16.891-6.444 23.335 0" data-original="#000000" class="active-path" data-old_color="#000000"/>
        </g>
    </svg>
