<?xml version="1.0"?>
<svg xmlns="http://www.w3.org/2000/svg" xmlns:xlink="http://www.w3.org/1999/xlink" version="1.1" id="Capa_1" x="0px" y="0px" width="512px" height="512px" viewBox="0 0 907.618 907.619" style="enable-background:new 0 0 907.618 907.619;" xml:space="preserve" class=""><g><g>
	<path d="M855.118,263.447H179.839l41.689-42.192c20.379-20.625,20.18-53.865-0.445-74.244   c-20.625-20.38-53.865-20.181-74.245,0.445L15.155,280.728c-9.787,9.904-15.238,23.291-15.154,37.214   c0.083,13.924,5.695,27.244,15.599,37.03l131.48,129.913c10.232,10.109,23.567,15.154,36.898,15.154   c13.541,0,27.078-5.207,37.347-15.602c20.379-20.625,20.18-53.864-0.445-74.243l-42.251-41.747h676.489   c28.995,0,52.5-23.505,52.5-52.5C907.618,286.952,884.113,263.447,855.118,263.447z" data-original="#000000" class="active-path" data-old_color="#000000" fill="#9E9E9E"/>
	<path d="M760.781,423.18c-20.379-20.626-53.62-20.826-74.245-0.444c-20.625,20.379-20.824,53.618-0.445,74.243l41.689,42.193H52.5   c-28.995,0-52.5,23.504-52.5,52.5c0,28.994,23.505,52.5,52.5,52.5h676.489l-42.251,41.746   c-20.625,20.379-20.824,53.619-0.445,74.244c10.271,10.395,23.806,15.602,37.348,15.602c13.329-0.002,26.667-5.047,36.897-15.154   l131.48-129.914c9.903-9.785,15.516-23.105,15.599-37.029s-5.368-27.311-15.154-37.215L760.781,423.18z" data-original="#000000" class="active-path" data-old_color="#000000" fill="#9E9E9E"/>
</g></g> </svg>
