<?xml version="1.0"?>
<svg xmlns="http://www.w3.org/2000/svg" id="Capa_1" enable-background="new 0 0 546.55 546.55" height="512px" viewBox="0 0 546.55 546.55" width="512px" class=""><g><path id="path-1_35_" d="m392.833 341.594c-28.255 0-51.239 22.984-51.239 51.239s22.984 51.239 51.239 51.239 51.239-22.984 51.239-51.239-22.984-51.239-51.239-51.239zm0 68.319c-9.424 0-17.08-7.656-17.08-17.08s7.656-17.08 17.08-17.08 17.08 7.656 17.08 17.08-7.656 17.08-17.08 17.08z" transform="translate(10 10)" data-original="#000000" class="active-path" data-old_color="#000000" fill="#3D9ED7"/><path id="path-1_34_" d="m153.717 341.594c-28.255 0-51.239 22.984-51.239 51.239s22.984 51.239 51.239 51.239 51.239-22.984 51.239-51.239-22.984-51.239-51.239-51.239zm0 68.319c-9.424 0-17.08-7.656-17.08-17.08s7.656-17.08 17.08-17.08 17.08 7.656 17.08 17.08-7.656 17.08-17.08 17.08z" transform="translate(3 10)" data-original="#000000" class="active-path" data-old_color="#000000" fill="#3D9ED7"/><path d="m426.992 0h-307.434c-47.086 0-85.399 38.312-85.399 85.398v375.753c0 22.238 14.321 41.019 34.159 48.093v20.226c0 9.44 7.639 17.08 17.08 17.08h68.319c9.441 0 17.08-7.639 17.08-17.08v-17.08h204.956v17.08c0 9.44 7.639 17.08 17.08 17.08h68.319c9.441 0 17.08-7.639 17.08-17.08v-20.226c19.838-7.074 34.159-25.855 34.159-48.093v-375.753c0-47.086-38.313-85.398-85.399-85.398zm-307.434 34.159h307.434c28.255 0 51.239 22.984 51.239 51.239v172.875c-35.189 4.416-127.578 15.001-204.956 15.001-77.33 0-169.754-10.587-204.956-15.001v-172.875c0-28.254 22.984-51.239 51.239-51.239zm341.594 444.072h-375.754c-9.424 0-17.08-7.656-17.08-17.08v-168.44c38.573 4.793 127.731 14.724 204.956 14.724s166.383-9.931 204.956-14.724v168.441c.001 9.423-7.655 17.079-17.078 17.079z" data-original="#000000" class="active-path" data-old_color="#000000" fill="#3D9ED7"/></g> </svg>
