<svg xmlns="http://www.w3.org/2000/svg" width="27.614" height="26.358" viewBox="0 0 27.614 26.358"><defs></defs><g transform="translate(2.25 0.25)"><path class="a" d="M-213.427,132.6H-214.5v-4.307a2.689,2.689,0,0,0-2.683-2.694h-17.454a2.689,2.689,0,0,0-2.684,2.693h0v4.31h-1.072a1.076,1.076,0,0,0-1.073,1.078h0v3.23a1.075,1.075,0,0,0,1.073,1.078h1.072v7.541a2.691,2.691,0,0,0,2.146,2.64V149.3a2.151,2.151,0,0,0,2.146,2.155h1.074a2.151,2.151,0,0,0,2.146-2.155v-1.078h7.8V149.3a2.15,2.15,0,0,0,2.146,2.155h1.074a2.151,2.151,0,0,0,2.147-2.155h0v-1.131a2.691,2.691,0,0,0,2.146-2.642v-7.541h1.074a1.076,1.076,0,0,0,1.073-1.077v-3.233A1.076,1.076,0,0,0-213.427,132.6Zm-23.895,4.311h-1.072v-3.233h1.072Zm4.919,8.046h0a2.045,2.045,0,0,1-2.041-2.049V142.9a2.049,2.049,0,0,1,2.057-2.041,2.049,2.049,0,0,1,2.041,2.057A2.049,2.049,0,0,1-232.4,144.955Zm12.967.136v0a2.045,2.045,0,0,1-2.041-2.047v-.008a2.049,2.049,0,0,1,2.057-2.041,2.049,2.049,0,0,1,2.041,2.057A2.049,2.049,0,0,1-219.435,145.091Zm2.338-14.106v7.54h-17.628v-8.607a1.613,1.613,0,0,1,1.61-1.616h14.41a1.613,1.613,0,0,1,1.609,1.616v1.064m-17.628,0,21.3,5.928H-214.5v-3.233h1.074Z" transform="translate(237.467 -125.597)"/></g></svg>