<svg xmlns="http://www.w3.org/2000/svg" width="26.103" height="23.731" viewBox="0 0 26.103 23.731"><defs><style>.a{fill:#4197cb;}</style></defs><g transform="translate(0 1)"><path class="a" d="M27.2,13.832H25.5l-1.1-3.427a4.239,4.239,0,0,0-4.031-2.934h-.824L17.907,5.1H13.039L11.276,7.471h-.6A4.213,4.213,0,0,0,6.64,10.4l-1.1,3.427h-1.7A1.346,1.346,0,0,0,2.5,15.176v.768a1.346,1.346,0,0,0,1.344,1.344H4.31A17.326,17.326,0,0,0,3.9,21.044v6.444a1.346,1.346,0,0,0,1.344,1.344H7.49a1.346,1.346,0,0,0,1.344-1.344V25.431H22.269v2.056a1.346,1.346,0,0,0,1.344,1.344h2.248A1.346,1.346,0,0,0,27.2,27.487V21.016a17.326,17.326,0,0,0-.411-3.756h.466A1.346,1.346,0,0,0,28.6,15.916v-.768A1.428,1.428,0,0,0,27.2,13.832ZM7.9,15.2l1.289-4a1.581,1.581,0,0,1,1.481-1.1h9.706a1.53,1.53,0,0,1,1.481,1.1l1.289,4a.274.274,0,0,1-.274.356H8.176A.266.266,0,0,1,7.9,15.2Zm2.8,6.553H7.984a.808.808,0,0,1-.823-.823V19.645a.844.844,0,0,1,.96-.823l2.523.411a.853.853,0,0,1,.685.631l.192.877A.835.835,0,0,1,10.7,21.756Zm13.161-.823a.808.808,0,0,1-.823.823H20.323a.819.819,0,0,1-.8-.987l.192-.877a.819.819,0,0,1,.685-.631l2.523-.411a.829.829,0,0,1,.96.823v1.261Z" transform="translate(-2.5 -6.1)"/></g></svg>