<svg xmlns="http://www.w3.org/2000/svg" width="30.968" height="30.968" viewBox="0 0 30.968 30.968"><defs><style>.a{fill:#4197cb;}</style></defs><path class="a" d="M21.92.457a.415.415,0,0,0-.137-.32A.493.493,0,0,0,21.464,0a7.776,7.776,0,0,0-5.343,2.329L13.244,5.3l-9.91-2.42a.434.434,0,0,0-.457.183l-1.6,2.192a.492.492,0,0,0-.091.365.462.462,0,0,0,.183.32l6.987,4.521L5.571,13.609l-3.7-.868a.413.413,0,0,0-.457.137l-1.324,1.6A.435.435,0,0,0,0,14.8c0,.137.091.228.228.32l4.11,2.42,2.42,4.11a.528.528,0,0,0,.32.228H7.17a.49.49,0,0,0,.274-.091l1.6-1.324A.413.413,0,0,0,9.179,20l-.822-3.7,3.105-2.786,4.567,7.033a.462.462,0,0,0,.32.183.549.549,0,0,0,.365-.091l2.192-1.6a.467.467,0,0,0,.183-.457l-2.466-9.91,2.923-2.831A7.733,7.733,0,0,0,21.92.457Z" transform="translate(0 15.5) rotate(-45)"/></svg>