<svg xmlns="http://www.w3.org/2000/svg" width="17.387" height="17.351" viewBox="0 0 17.387 17.351"><defs><style>.a{fill:#e87474;}</style></defs><path class="a" d="M23.387,6.362a.329.329,0,0,0-.109-.254A.391.391,0,0,0,23.025,6a6.168,6.168,0,0,0-4.238,1.847L16.5,10.2l-7.86-1.92a.344.344,0,0,0-.362.145L7.014,10.166a.39.39,0,0,0-.072.29.367.367,0,0,0,.145.254l5.542,3.586-2.21,2.5-2.934-.688a.328.328,0,0,0-.362.109l-1.05,1.268A.345.345,0,0,0,6,17.736c0,.109.072.181.181.254l3.26,1.92,1.92,3.26a.419.419,0,0,0,.254.181h.072a.388.388,0,0,0,.217-.072l1.268-1.05a.328.328,0,0,0,.109-.362l-.652-2.934,2.463-2.21L18.714,22.3a.367.367,0,0,0,.254.145.436.436,0,0,0,.29-.072L21,21.1a.37.37,0,0,0,.145-.362l-1.956-7.86L21.5,10.636A6.134,6.134,0,0,0,23.387,6.362Z" transform="translate(-6 -6)"/></svg>