<svg height="486pt" viewBox="-139 0 486 486" width="486pt" xmlns="http://www.w3.org/2000/svg"><path d="m158 111.578125v-24.578125h1.613281c4.503907.011719 8.207031-3.539062 8.386719-8.035156v-60.664063c-.183594-10.128906-8.421875-18.2578122-18.550781-18.300781h-90.902344c-10.128906.046875-18.363281 8.171875-18.546875 18.300781v60.664063c.179688 4.496094 3.882812 8.046875 8.386719 8.035156h1.613281v24.609375c-30 14.554687-50 46.410156-50 80.960937v244.648438c.0742188 26.863281 21.800781 48.640625 48.660156 48.78125h110.703125c26.859375-.152344 48.574219-21.9375 48.636719-48.800781v-244.625c.125-17.84375-5.03125-35.324219-14.824219-50.242188-8.746093-13.226562-20.898437-23.851562-35.175781-30.753906zm-102-93.277344c.171875-1.289062 1.25-2.265625 2.550781-2.300781h90.902344c1.296875.039062 2.378906 1.011719 2.546875 2.300781v52.699219h-96zm5.226562 105.953125c2.976563-1.246094 4.875-4.199218 4.773438-7.425781v-29.828125h76v29.832031c-.101562 3.242188 1.816406 6.207031 4.816406 7.441407 27.171875 10.726562 45.183594 38.179687 45.183594 68.300781v156.425781h-176v-156.429688c0-29.949218 18.027344-57.402343 45.226562-68.316406zm98.113282 345.746094h-110.652344c-18.050781-.117188-32.632812-14.753906-32.6875-32.800781v-72.199219h176v72.171875c-.039062 18.050781-14.613281 32.699219-32.660156 32.828125zm0 0"/><path d="m104 321.300781c22.167969-.089843 42.605469-12.007812 53.601562-31.257812 10.230469-17.851563 10.320313-38.785157.242188-55.984375-.125-.214844-.261719-.421875-.402344-.621094l-46.941406-65.25c-1.519531-2.054688-3.941406-3.246094-6.496094-3.1875-2.550781-.058594-4.972656 1.128906-6.492187 3.179688l-46.941407 65.144531c-.148437.195312-.289062.398437-.417968.605469-10.089844 17.308593-9.976563 38.308593.304687 56.203124 11.003907 19.199219 31.410157 31.082032 53.542969 31.167969zm-40.210938-79.03125 40.203126-55.859375 40.21875 56.039063c7.074218 12.308593 6.902343 26.738281-.5 39.636719-8.066407 14.332031-23.230469 23.203124-39.675782 23.210937-16.445312.011719-31.621094-8.839844-39.710937-23.15625-7.433594-12.949219-7.625-27.457031-.535157-39.871094zm0 0"/><path d="m103.640625 296.886719c20.101563.015625 36.421875-16.238281 36.484375-36.335938 0-4.417969-3.582031-8-8-8s-8 3.582031-8 8c-.054688 11.265625-9.21875 20.363281-20.484375 20.335938-4.417969 0-8 3.578125-8 8 0 4.417969 3.582031 8 8 8zm0 0"/></svg>