<?xml version="1.0" encoding="iso-8859-1"?>
<!-- Generator: Adobe Illustrator 19.0.0, SVG Export Plug-In . SVG Version: 6.00 Build 0)  -->
<svg version="1.1" id="Capa_1" xmlns="http://www.w3.org/2000/svg" xmlns:xlink="http://www.w3.org/1999/xlink" x="0px" y="0px"
	 viewBox="0 0 512 512" style="enable-background:new 0 0 512 512;" xml:space="preserve">
<g>
	<g>
		<path d="M511.635,126.169c-1.229-5.487-5.371-9.778-10.812-11.197L224.317,42.828c-3.894-1.019-7.875,1.317-8.89,5.211
			c-1.016,3.894,1.317,7.874,5.211,8.89l276.506,72.144c0.119,0.031,0.221,0.057,0.27,0.279c0.049,0.222-0.031,0.289-0.125,0.368
			l-14.311,11.948c-6.634,5.538-14.558,9.106-22.871,10.52c-0.401,0.068-0.805,0.123-1.208,0.18
			c-0.439,0.063-0.878,0.124-1.318,0.175c-0.481,0.055-0.962,0.103-1.444,0.144c-0.327,0.028-0.654,0.051-0.981,0.072
			c-0.576,0.037-1.152,0.071-1.729,0.087c-0.136,0.004-0.273,0.003-0.409,0.006c-3.828,0.075-7.671-0.297-11.417-1.125
			c-0.017-0.004-0.034-0.005-0.051-0.009c-0.548-0.122-1.098-0.235-1.644-0.376c-0.023-0.006-0.047-0.011-0.07-0.017l-66.6-17.376
			c-17.667-4.61-36.061-1.224-50.743,9.021c-0.066,0.046-0.132,0.092-0.198,0.138c-1.461,1.028-2.884,2.123-4.266,3.287
			c-0.16,0.135-0.32,0.27-0.479,0.407c-0.652,0.56-1.297,1.129-1.93,1.719c-0.009,0.008-0.018,0.016-0.027,0.025
			c-0.008,0.008-0.017,0.015-0.025,0.022c-0.652,0.608-1.322,1.188-2,1.753c-0.223,0.186-0.449,0.366-0.676,0.547
			c-0.483,0.388-0.973,0.765-1.469,1.132c-0.256,0.189-0.509,0.381-0.769,0.565c-0.584,0.415-1.178,0.813-1.778,1.2
			c-0.397,0.255-0.8,0.499-1.204,0.742c-0.414,0.25-0.829,0.497-1.249,0.733c-0.423,0.237-0.851,0.465-1.281,0.688
			c-0.293,0.153-0.588,0.3-0.884,0.447c-0.495,0.244-0.989,0.487-1.492,0.713c-0.024,0.011-0.048,0.02-0.072,0.031
			c-1.973,0.884-4.006,1.631-6.085,2.234c-0.021,0.006-0.042,0.012-0.062,0.018c-4.211,1.215-8.61,1.846-13.088,1.846
			c-4.003,0-8.001-0.513-11.881-1.526L92.965,113.09c-0.003-0.001-0.006-0.001-0.009-0.002l-7.06-1.842
			c-2.306-0.602-4.239-2.065-5.444-4.121c-1.206-2.056-1.538-4.458-0.936-6.764l16.098-61.697c0.936-3.59,3.215-6.6,6.416-8.476
			c3.203-1.876,6.943-2.391,10.53-1.457l74.166,19.351c3.894,1.018,7.875-1.316,8.89-5.211c1.016-3.894-1.317-7.874-5.211-8.89
			l-74.166-19.35c-7.357-1.921-15.02-0.859-21.579,2.985c-6.559,3.845-11.228,10.013-13.147,17.37L65.415,96.681
			c-3.271,12.535,4.267,25.394,16.802,28.665l0.019,0.005l-8.9,34.11c-1.784,6.836-0.799,13.957,2.774,20.052
			c3.572,6.095,9.305,10.434,16.14,12.217l70.542,18.405c-2.186,13.684,6.362,27.094,20.041,30.662l1.748,0.456l-44.26,87.02
			c-32.743,12.284-65.379,24.485-87.939,32.695v-34.294c0-14.185-11.541-25.726-25.727-25.726H7.287
			c-4.025,0-7.287,3.262-7.287,7.287v182.781c0,4.024,3.262,7.287,7.287,7.287h19.368c14.186,0,25.727-11.541,25.727-25.726v-60.79
			c8.442-2.992,23.618-8.6,51.048-18.852c3.769-1.409,5.683-5.607,4.274-9.376c-1.408-3.769-5.604-5.682-9.377-4.275
			c-22.754,8.505-37.014,13.791-45.946,17.022v-19.834c23.212-8.392,59.568-21.988,95.71-35.549c1.705-0.64,3.109-1.895,3.935-3.519
			l46.99-92.384l20.153,5.258L165.9,351.085c-0.037,0.069-0.073,0.14-0.107,0.211c-1.04,2.132-2.835,3.765-5.054,4.598
			c-10.835,4.067-20.677,7.759-29.622,11.113c-3.769,1.412-5.677,5.612-4.265,9.38c1.414,3.768,5.613,5.677,9.38,4.265
			c8.947-3.354,18.791-7.047,29.628-11.115c5.683-2.133,10.287-6.299,12.974-11.739l54.82-103.741l12.057,3.146
			c2.258,0.589,4.578,0.888,6.896,0.888c0.002,0,0.001,0,0.003,0c11.497,0,21.65-7.223,25.558-17.853l122.939,32.076
			c1.474,0.385,2.991,0.58,4.508,0.58c0.001,0,0,0,0.002,0c6.797,0,12.868-3.864,15.862-9.739
			c24.783-4.484,46.167-25.157,53.266-52.368c4.12-15.784,3.083-32.299-2.708-46.614c7.317-2.454,14.214-6.252,20.281-11.318
			l14.311-11.948C510.944,137.304,512.863,131.657,511.635,126.169z M37.809,371.351v35.25v65.976h-0.001
			c0,6.15-5.004,11.153-11.154,11.153H14.573V315.522h12.082c6.15,0,11.154,5.003,11.154,11.153V371.351z M252.609,243.518
			c-1.079,0-2.161-0.14-3.219-0.416l-62.878-16.406c-5.891-1.537-9.738-6.993-9.476-12.844l69.168,18.046l17.73,4.626
			C261.815,240.744,257.468,243.518,252.609,243.518z M407.447,254.855c-0.257,0.986-0.289,1.997-0.134,2.975
			c-0.5,0.308-1.08,0.491-1.698,0.491c-0.276,0-0.555-0.036-0.829-0.108L95.929,177.63c-3.069-0.801-5.643-2.749-7.248-5.486
			c-1.603-2.737-2.046-5.934-1.246-9.003l8.9-34.11l171.562,44.762c5.206,1.359,10.472,2.023,15.691,2.023
			c14.443,0,28.501-5.094,39.762-14.668c0.743-0.631,1.473-1.282,2.19-1.951c0.66-0.617,1.339-1.204,2.027-1.777
			c0.223-0.185,0.449-0.365,0.674-0.546c0.481-0.387,0.969-0.762,1.463-1.128c0.259-0.192,0.517-0.387,0.78-0.573
			c0.569-0.404,1.147-0.791,1.731-1.168c0.424-0.273,0.854-0.535,1.286-0.794c0.397-0.239,0.794-0.476,1.197-0.702
			c0.434-0.243,0.872-0.477,1.313-0.705c0.279-0.145,0.56-0.286,0.842-0.425c2.473-1.221,5.045-2.229,7.695-2.997
			c0.003-0.001,0.007-0.002,0.01-0.003c4.219-1.221,8.628-1.853,13.116-1.853c4.004,0,8.002,0.513,11.882,1.526l36.586,9.545
			l24.98,6.518L407.447,254.855z M460.644,207.109c-4.95,18.972-18.335,33.945-34.475,39.764l20.775-79.624
			c3.508,0.282,7.019,0.265,10.498-0.038c0.017-0.001,0.034-0.002,0.052-0.003C463.044,179.154,464.212,193.432,460.644,207.109z"/>
	</g>
</g>
<g>
</g>
<g>
</g>
<g>
</g>
<g>
</g>
<g>
</g>
<g>
</g>
<g>
</g>
<g>
</g>
<g>
</g>
<g>
</g>
<g>
</g>
<g>
</g>
<g>
</g>
<g>
</g>
<g>
</g>
</svg>
