<?xml version="1.0"?>
<svg xmlns="http://www.w3.org/2000/svg" xmlns:xlink="http://www.w3.org/1999/xlink" version="1.1" id="Capa_1" x="0px" y="0px" viewBox="0 0 416.4 416.4" style="enable-background:new 0 0 416.4 416.4;" xml:space="preserve" width="512px" height="512px"><g transform="matrix(-1 2.44929e-16 2.44929e-16 1 416.4 1.16983e-14)"><g>
	<g>
		<path d="M320.6,158.8c-4.8,0-9.6,0.8-13.6,3.2l-70.4-88.8l8.8-8.8l0.8-0.8c7.2-7.2,11.2-16.8,11.2-26.4c0-10.4-4-19.2-11.2-26.4    c-14.4-14.4-38.4-14.4-52.8,0l-0.8,0.8l-28,28c-10.4-4-22.4-6.4-34.4-6.4c-24.8,0-48,9.6-65.6,27.2c-0.8,0.8-1.6,2.4-1.6,4    c0,1.6,0.8,3.2,1.6,4l24.8,24.8c-16.8,20.8-15.2,51.2,4,70.4c9.6,9.6,23.2,15.2,37.6,15.2c12,0,23.2-4,32.8-11.2l24.8,24.8    c0.8,0.8,2.4,1.6,4,1.6c1.6,0,3.2-0.8,4-1.6c17.6-17.6,27.2-40.8,27.2-65.6c0-12-2.4-23.2-6.4-34.4L228.6,82l69.6,87.2    c-5.6,5.6-8.8,13.6-8.8,22.4c0,14.4,9.6,26.4,22.4,30.4l-87.2,137.6c-42.4,0.8-75.2,23.2-75.2,51.2c0,1.6,0.8,3.2,1.6,4    s2.4,1.6,4,1.6h144.8c3.2,0,6.4-2.4,6.4-6.4c0-26.4-28.8-48-68-51.2L323.8,222c16.8-0.8,29.6-14.4,29.6-30.4    C353.4,174,339,158.8,320.6,158.8z M130.2,167.6c-11.2,0-20.8-4-28.8-12c-14.4-14.4-16-36.8-4-52.8l56.8,56.8    C147,164.4,139,167.6,130.2,167.6z M191.8,179.6l-90.4-90.4l-24-24c14.4-12.8,33.6-20,52.8-20c21.6,0,42.4,8.8,57.6,24    c15.2,15.2,24,36,24,57.6C211.8,146,204.6,165.2,191.8,179.6z M211.8,80.4c-4-7.2-9.6-14.4-15.2-20c-6.4-6.4-12.8-11.2-20-15.2    l25.6-26.4c9.6-9.6,26.4-9.6,36,0c9.6,9.6,9.6,26.4,0,36L211.8,80.4z M294.2,405.2H163c4.8-18.4,32.8-33.6,65.6-33.6    C260.6,371.6,288.6,386.8,294.2,405.2z M321.4,212.4c-12,0-20.8-9.6-20.8-20.8c0-11.2,8.8-20.8,20.8-20.8s20.8,8.8,20.8,20.8    C342.2,202.8,333.4,212.4,321.4,212.4z" data-original="#000000" class="active-path" fill="#000000"/>
	</g>
</g></g> </svg>
