<svg height="511pt" viewBox="1 -41 511.99899 511" width="511pt" xmlns="http://www.w3.org/2000/svg"><path d="m92 383.183594c-.160156-.027344-.324219-.050782-.511719-.074219-.046875-.003906-.097656-.011719-.144531-.019531-14.496094-1.859375-28.511719 5.117187-35.71875 17.765625-1.882812 3.304687-3.992188 6.195312-5.945312 8.148437-7.878907 7.878906-20.699219 7.878906-28.582032-.003906-3.820312-3.816406-5.925781-8.890625-5.925781-14.292969 0-5.398437 2.105469-10.472656 5.929687-14.292969 1.761719-1.761718 4.238282-3.617187 7.164063-5.367187 12.65625-7.566406 19.378906-22.464844 16.734375-37.082031-14.75-81.390625-14.75-163.9375 0-245.339844 2.648438-14.605469-4.078125-29.503906-16.71875-37.0625-2.957031-1.773438-5.441406-3.632812-7.183594-5.375-3.820312-3.820312-5.925781-8.898438-5.925781-14.296875s2.105469-10.472656 5.929687-14.292969c3.816407-3.820312 8.890626-5.921875 14.289063-5.921875s10.472656 2.101563 14.300781 5.933594c1.945313 1.9375 4.050782 4.824219 5.933594 8.132813 7.210938 12.65625 21.234375 19.628906 35.722656 17.769531 109.253906-14.03125 220.046875-14.03125 329.304688 0 14.5 1.859375 28.511718-5.117188 35.726562-17.765625 1.890625-3.316406 4-6.210938 5.9375-8.144532 3.820313-3.824218 8.898438-5.925781 14.300782-5.925781 5.398437 0 10.472656 2.101563 14.289062 5.925781 7.878906 7.875 7.878906 20.703126 0 28.589844-1.738281 1.738282-4.222656 3.597656-7.167969 5.367188-12.660156 7.566406-19.386719 22.464844-16.738281 37.070312 1.632812 8.984375 3.121094 18.269532 4.429688 27.585938.582031 4.152344 4.429687 7.042968 8.570312 6.460937 4.148438-.582031 7.039062-4.417969 6.457031-8.566406-1.335937-9.523437-2.859375-19.007813-4.527343-28.1875-1.527344-8.421875 2.328124-16.996094 9.609374-21.347656 4.058594-2.441407 7.457032-5.015625 10.097657-7.65625 13.792969-13.804688 13.792969-36.257813 0-50.046875-6.679688-6.6875-15.566407-10.371094-25.019531-10.371094-9.453126 0-18.34375 3.683594-25.03125 10.371094-2.90625 2.90625-5.804688 6.835937-8.386719 11.355468-4.15625 7.289063-12.253907 11.308594-20.613281 10.234376-110.539063-14.199219-222.636719-14.199219-333.171876 0-8.367187 1.074218-16.453124-2.941407-20.601562-10.226563-2.574219-4.523437-5.484375-8.460937-8.398438-11.363281-6.683593-6.6875-15.570312-10.371094-25.023437-10.371094s-18.339844 3.683594-25.015625 10.367188c-6.691406 6.683593-10.375 15.570312-10.375 25.023437s3.683594 18.339844 10.371094 25.027344c2.640625 2.640625 6.039062 5.21875 10.109375 7.664062 7.261719 4.339844 11.113281 12.914063 9.589843 21.339844-15.074218 83.199219-15.074218 167.5625 0 250.75 1.527344 8.429687-2.328124 17.011719-9.589843 21.351563-4.039063 2.414062-7.4375 4.992187-10.105469 7.660156-6.691406 6.679687-10.375 15.570312-10.375 25.023437 0 9.457031 3.683594 18.34375 10.371094 25.027344 6.898437 6.898437 15.957031 10.34375 25.019531 10.34375s18.121094-3.445313 25.019531-10.34375c2.921875-2.921875 5.824219-6.851563 8.398438-11.363281 4.140625-7.265625 12.191406-11.277344 20.535156-10.238282.09375.015626.191406.027344.300781.039063 4.085938.609375 7.910157-2.167969 8.59375-6.257813.6875-4.132812-2.105469-8.042968-6.238281-8.730468zm0 0"/><path d="m501.636719 369.683594c-2.671875-2.671875-6.074219-5.246094-10.109375-7.660156-7.269532-4.34375-11.125-12.925782-9.597656-21.347657 11.558593-63.734375 14.296874-128.386719 8.136718-192.160156-.402344-4.167969-4.113281-7.222656-8.28125-6.820313-4.171875.402344-7.226562 4.109376-6.820312 8.28125 6.023437 62.382813 3.34375 125.628907-7.96875 187.992188-2.644532 14.609375 4.082031 29.511719 16.746094 37.078125 2.925781 1.75 5.402343 3.605469 7.164062 5.367187 3.816406 3.816407 5.921875 8.894532 5.921875 14.296876 0 5.402343-2.105469 10.476562-5.921875 14.292968-7.875 7.882813-20.707031 7.878906-28.59375 0-.207031-.207031-.410156-.425781-.640625-.675781-15.550781-16.867187-37.988281-25.4375-59.988281-22.941406-92.855469 10.554687-187.0625 10.972656-280.007813 1.238281-4.175781-.4375-7.898437 2.589844-8.332031 6.753906-.4375 4.167969 2.585938 7.902344 6.753906 8.335938 94.039063 9.847656 189.351563 9.425781 283.296875-1.25 17.222657-1.957032 34.839844 4.828125 47.121094 18.148437.011719.011719.078125.085938.09375.101563.332031.355468.65625.699218.980469 1.023437 6.902344 6.894531 15.964844 10.34375 25.027344 10.339844 9.0625 0 18.125-3.445313 25.019531-10.34375 6.679687-6.683594 10.363281-15.570313 10.363281-25.023437 0-9.457032-3.679688-18.34375-10.363281-25.027344zm0 0"/><path d="m69.402344 64.507812c-4.011719 1.210938-6.28125 5.445313-5.070313 9.457032 3.015625 9.992187 5.671875 20.148437 8.003907 30.441406-17.492188 34.800781-26.382813 71.191406-26.382813 108.207031 0 37.007813 8.890625 73.398438 26.382813 108.207031-2.332032 10.292969-4.988282 20.449219-8.003907 30.441407-1.210937 4.011719 1.058594 8.246093 5.070313 9.457031.730468.21875 1.46875.324219 2.195312.324219 3.257813 0 6.269532-2.117188 7.261719-5.394531 13.597656-45.070313 20.492187-93.191407 20.492187-143.035157 0-49.839843-6.894531-97.964843-20.492187-143.03125-1.210937-4.011719-5.445313-6.285156-9.457031-5.074219zm-8.273438 148.105469c0-28.027343 5.476563-55.707031 16.261719-82.566406 4.503906 26.773437 6.789063 54.375 6.789063 82.566406 0 28.191407-2.285157 55.792969-6.789063 82.566407-10.785156-26.863282-16.261719-54.542969-16.261719-82.566407zm0 0"/></svg>