<?xml version="1.0"?>
<svg xmlns="http://www.w3.org/2000/svg" id="Capa_1" enable-background="new 0 0 524.235 524.235" height="512px" viewBox="0 0 524.235 524.235" width="512px" class=""><g transform="matrix(-1 2.44929e-16 2.44929e-16 1 524.235 -1.47137e-14)"><path d="m376.794 212.972c0 27.101 22.046 49.147 49.147 49.147s49.147-22.046 49.147-49.147-22.046-49.147-49.147-49.147-49.147 22.046-49.147 49.147z" data-original="#000000" class="active-path" fill="#000000"/><path d="m147.33 294.884c19.934 0 28.333-4.799 41.02-12.063 16.142-9.215 36.22-20.702 73.577-20.702 37.388 0 57.482 11.471 73.625 20.686 8.551 4.887 15.39 8.497 24.861 10.447v-151.265l42.587-56.794c10.863-14.479 7.935-35.021-6.543-45.867-14.511-10.895-35.021-7.887-45.867 6.543l-49.147 65.529c-4.256 5.679-6.559 12.575-6.559 19.662v61.658l-184.597 92.299c10.605 5.945 19.32 9.867 37.043 9.867z" data-original="#000000" class="active-path" fill="#000000"/><path d="m32.765 360.413c19.934 0 28.317 4.799 41.004 12.063 16.126 9.215 36.204 20.702 73.561 20.702s57.418-11.487 73.561-20.702c12.703-7.263 21.086-12.063 41.036-12.063 19.998 0 28.413 4.799 41.148 12.079 16.142 9.215 36.236 20.686 73.625 20.686s57.482-11.471 73.625-20.686c12.735-7.279 21.15-12.079 41.148-12.079 18.094 0 32.765-14.671 32.765-32.765s-14.671-32.765-32.765-32.765c-37.388 0-57.482 11.471-73.625 20.686-12.735 7.279-21.15 12.079-41.148 12.079s-28.413-4.799-41.148-12.079c-16.142-9.215-36.236-20.686-73.625-20.686-37.356 0-57.434 11.487-73.577 20.702-12.687 7.263-21.086 12.063-41.02 12.063s-28.333-4.799-41.02-12.063c-16.126-9.215-36.204-20.702-73.545-20.702-18.094.001-32.765 14.671-32.765 32.766s14.671 32.764 32.765 32.764z" data-original="#000000" class="active-path" fill="#000000"/><path d="m491.471 393.177c-37.388 0-57.482 11.471-73.625 20.686-12.735 7.279-21.15 12.079-41.148 12.079s-28.413-4.799-41.148-12.079c-16.142-9.215-36.236-20.686-73.625-20.686-37.356 0-57.434 11.487-73.577 20.702-12.687 7.263-21.086 12.063-41.02 12.063s-28.333-4.799-41.02-12.063c-16.126-9.215-36.204-20.702-73.545-20.702-18.092 0-32.763 14.671-32.763 32.765s14.671 32.765 32.765 32.765c19.934 0 28.317 4.799 41.004 12.063 16.126 9.215 36.204 20.702 73.561 20.702s57.418-11.487 73.561-20.702c12.703-7.263 21.086-12.063 41.036-12.063 19.998 0 28.413 4.799 41.148 12.079 16.142 9.215 36.236 20.686 73.625 20.686s57.48-11.472 73.623-20.687c12.735-7.279 21.15-12.079 41.148-12.079 18.094 0 32.765-14.671 32.765-32.765s-14.671-32.764-32.765-32.764z" data-original="#000000" class="active-path" fill="#000000"/></g> </svg>
