<?xml version="1.0"?>
<svg xmlns="http://www.w3.org/2000/svg" xmlns:xlink="http://www.w3.org/1999/xlink" version="1.1" id="Capa_1" x="0px" y="0px" viewBox="0 0 512 512" style="enable-background:new 0 0 512 512;" xml:space="preserve" width="512px" height="512px"><g><g>
	<g>
		<path d="M100.07,89.515c30.331-20.221,30.28-66.775,0-86.962c-6.891-4.594-16.206-2.732-20.801,4.161    c-4.595,6.893-2.732,16.206,4.161,20.801c12.497,8.331,12.51,28.698,0,37.038c-30.306,20.204-30.28,64.775,0,84.962    c6.892,4.594,16.205,2.733,20.801-4.161c4.595-6.893,2.732-16.206-4.161-20.801C87.556,116.211,87.531,97.874,100.07,89.515z" data-original="#000000" class="active-path" data-old_color="#000000" fill="#8BC34A"/>
	</g>
</g><g>
	<g>
		<path d="M175.07,89.515c30.331-20.221,30.28-66.775,0-86.962c-6.891-4.594-16.206-2.732-20.801,4.161    c-4.595,6.893-2.732,16.206,4.161,20.801c12.497,8.331,12.51,28.698,0,37.038c-30.306,20.204-30.28,64.775,0,84.962    c6.892,4.594,16.205,2.733,20.801-4.161c4.595-6.893,2.732-16.206-4.161-20.801C162.556,116.211,162.531,97.874,175.07,89.515z" data-original="#000000" class="active-path" data-old_color="#000000" fill="#8BC34A"/>
	</g>
</g><g>
	<g>
		<path d="M251.07,89.515c30.331-20.221,30.28-66.775,0-86.962c-6.892-4.594-16.206-2.732-20.801,4.161    c-4.595,6.893-2.732,16.206,4.161,20.801c12.497,8.331,12.51,28.698,0,37.038c-30.306,20.204-30.28,64.775,0,84.962    c6.892,4.594,16.205,2.733,20.801-4.161c4.595-6.893,2.732-16.206-4.161-20.801C238.556,116.211,238.531,97.874,251.07,89.515z" data-original="#000000" class="active-path" data-old_color="#000000" fill="#8BC34A"/>
	</g>
</g><g>
	<g>
		<path d="M422.001,210.968h-1.574l1.483-13.343c0.988-8.887-5.981-16.657-14.908-16.657h-45v-15c0-24.813-20.187-45-45-45    s-45,20.187-45,45v15H15c-4.267,0-8.332,1.817-11.177,4.996c-2.846,3.179-4.203,7.42-3.731,11.66    c1.666,14.996,10.112,91.012,11.779,106.009c4.763,42.869,23.466,85.096,55.76,118.334H15c-8.284,0-15,6.716-15,15v3.875    c0,39.218,31.907,71.125,71.125,71.125h279.75c39.219,0,71.125-31.907,71.125-71.125v-3.875c0-8.284-6.716-15-15-15h-52.631    c8.923-9.184,16.996-19.251,24.032-30H422c49.741,0,90-41.232,90-91C512,251.342,471.626,210.968,422.001,210.968z     M302.001,165.968c0-8.271,6.729-15,15-15s15,6.729,15,15v15h-30V165.968z M287.001,307.18l15,15v39.787h-30V322.18    L287.001,307.18z M31.759,210.968h240.242v30H35.092L31.759,210.968z M390.472,451.867c-4.864,17.29-20.773,30.1-39.596,30.1    H71.125c-18.823,0-34.733-12.81-39.596-30.1C38.005,451.867,383.989,451.867,390.472,451.867z M380.312,300.321    c-5.432,48.889-32.266,94.034-72.081,121.647H113.768v-0.001C73.953,394.355,47.119,349.21,41.687,300.32l-3.261-29.353h233.575    v8.787l-25.607,25.606c-2.813,2.813-4.394,6.628-4.394,10.607v61c0,8.284,6.716,15,15,15h60c8.284,0,15-6.716,15-15v-61    c0-3.978-1.58-7.793-4.394-10.606L302,279.755v-8.787h81.574L380.312,300.321z M388.749,224.401    c-0.002,0.019-0.004,0.037-0.006,0.056l-1.835,16.511H302v-30h88.241L388.749,224.401z M422.001,361.967h-27.45    c8.042-18.534,13.354-38.3,15.579-58.334c0.624-5.618,5.782-52.034,6.963-62.666h4.908c33.084,0,60,26.916,60,60    C482.001,334.603,455.085,361.967,422.001,361.967z" data-original="#000000" class="active-path" data-old_color="#000000" fill="#8BC34A"/>
	</g>
</g></g> </svg>
