<?xml version="1.0" encoding="iso-8859-1"?>
<!-- Generator: Adobe Illustrator 19.1.0, SVG Export Plug-In . SVG Version: 6.00 Build 0)  -->
<svg version="1.1" id="Capa_1" xmlns="http://www.w3.org/2000/svg" xmlns:xlink="http://www.w3.org/1999/xlink" x="0px" y="0px"
	 viewBox="0 0 482.669 482.669" style="enable-background:new 0 0 482.669 482.669;" xml:space="preserve">
<g>
	<g>
		<path d="M359.692,310.269c-9.2-9.6-20.2-14.6-31.9-14.6c-11.6,0-22.8,5-32.3,14.5l-31,31c-2.7-1.5-5.4-2.9-8.1-4.2
			c-3.5-1.7-6.8-3.4-9.6-5.2c-28.7-18.2-54.7-41.9-79.6-72.6c-12.3-15.6-20.6-28.7-26.4-42c8.1-7.4,15.6-15,22.9-22.5
			c2.7-2.7,5.4-5.5,8.1-8.2c9.8-9.8,15-21.1,15-32.6s-5.2-22.8-15-32.6l-26.3-26.3c-3-3-6.1-6.1-9-9.1c-5.8-5.9-11.8-12.1-18.1-17.9
			c-9.2-9.1-20.1-13.9-31.7-13.9c-11.5,0-22.6,4.8-32.1,13.9c-0.1,0.1-0.1,0.1-0.2,0.2l-33,33c-12.2,12.2-19.1,27-20.6,44.2
			c-1.7,21.3,2.2,43.9,12.3,71.2c15.5,42,38.9,81,73.6,122.8c42.2,50.4,92.9,90.1,150.8,118.1c22.1,10.5,51.6,22.8,84.6,25
			c2,0.1,4.1,0.2,6,0.2c22,0,40.5-7.9,54.9-23.6c0.1-0.1,0.3-0.3,0.4-0.4c5.1-6.1,10.8-11.7,16.9-17.5c4.1-4,8.4-8.1,12.5-12.5
			c19.3-20.1,19.2-45.7-0.2-65.1L359.692,310.269z M395.692,411.869C395.592,411.869,395.592,411.869,395.692,411.869
			c-3.8,4-7.7,7.8-11.8,11.8c-6.2,6-12.7,12.2-18.5,19.2c-9.9,10.7-21.7,15.7-37,15.7c-1.5,0-3,0-4.5-0.1
			c-28.8-1.9-55.6-13.1-75.7-22.7c-54.8-26.5-102.8-64.2-142.8-111.8c-33-39.7-55.1-76.5-69.7-115.9c-9-24.2-12.4-43-10.9-60.8
			c1-11.5,5.5-21.1,13.7-29.3l32.9-32.9c4.9-4.7,10.2-7.1,15.4-7.1c5.1,0,10.2,2.4,14.8,7c0.1,0.1,0.2,0.2,0.3,0.3
			c5.9,5.5,11.5,11.2,17.4,17.3c3,3,6.1,6.2,9.2,9.3l26.3,26.3c10.5,10.5,10.5,20.8,0,31.3c-2.8,2.8-5.5,5.6-8.3,8.3
			c-8.2,8.3-15.9,16.1-24.3,23.6c-0.2,0.1-0.3,0.3-0.5,0.5c-7.8,7.8-6.6,15.2-4.7,20.8c0.1,0.3,0.2,0.5,0.3,0.8
			c6.8,16.5,16.4,32.1,31,50.6l0.1,0.1c26.6,32.7,54.5,58.2,85.4,77.8c3.9,2.5,7.9,4.5,11.8,6.4c3.5,1.7,6.8,3.4,9.6,5.2
			c0.3,0.2,0.7,0.4,1.1,0.6c3.1,1.5,6.1,2.3,9.1,2.3c7.6,0,12.4-4.8,14-6.4l33-33c4.9-4.9,10.2-7.5,15.3-7.5c6.3,0,11.5,4,14.7,7.3
			c0.1,0.1,0.1,0.1,0.2,0.2l53.2,53.2C408.492,393.069,402.692,404.469,395.692,411.869z"/>
		<path d="M275.692,106.969c3.2,0,6.3-1.3,8.5-3.5s3.5-5.3,3.5-8.5s-1.3-6.3-3.5-8.5s-5.3-3.5-8.5-3.5s-6.3,1.3-8.5,3.5
			s-3.5,5.3-3.5,8.5s1.3,6.3,3.5,8.5C269.392,105.669,272.492,106.969,275.692,106.969z"/>
		<path d="M315.392,120.269c4.3,0,8.5-2.4,10.7-6.5c3-5.9,0.8-13.1-5.1-16.2s-13.1-0.8-16.2,5.1s-0.8,13.1,5.1,16.2
			C311.692,119.869,313.492,120.269,315.392,120.269z"/>
		<path d="M357.692,141.569c4.7-4.7,4.7-12.3,0-17c-4.7-4.7-12.3-4.7-17,0c-4.7,4.7-4.7,12.3,0,17c2.3,2.3,5.4,3.5,8.5,3.5
			S355.392,143.869,357.692,141.569z"/>
		<path d="M368.492,156.269c-5.9,3.1-8.2,10.3-5.1,16.2c2.1,4.1,6.3,6.5,10.7,6.5c1.9,0,3.8-0.4,5.5-1.3c5.9-3.1,8.2-10.3,5.1-16.2
			C381.692,155.469,374.392,153.169,368.492,156.269z"/>
		<path d="M375.392,206.669c0,3.2,1.3,6.3,3.5,8.5s5.3,3.5,8.5,3.5s6.3-1.3,8.5-3.5s3.5-5.3,3.5-8.5s-1.3-6.3-3.5-8.5
			s-5.3-3.5-8.5-3.5s-6.3,1.3-8.5,3.5C376.692,200.369,375.392,203.469,375.392,206.669z"/>
		<path d="M262.892,185.469c8.5,1.4,16.2,5.5,22.4,11.6c6.2,6.2,10.2,13.9,11.6,22.4c1,5.9,6.1,10,11.8,10c0.7,0,1.3-0.1,2-0.2
			c6.5-1.1,10.9-7.3,9.8-13.8c-2.3-13.4-8.6-25.6-18.3-35.3c-9.7-9.7-21.9-16-35.3-18.3c-6.5-1.1-12.7,3.3-13.8,9.8
			C251.892,178.169,256.292,184.369,262.892,185.469z"/>
		<path d="M482.092,200.769c-8.5-50.1-32.2-95.8-68.5-132.1s-82-60-132.1-68.5c-6.5-1.1-12.7,3.3-13.8,9.8
			c-1.1,6.5,3.3,12.7,9.8,13.8c45.2,7.7,86.4,29,119.2,61.8c32.7,32.7,54.1,73.9,61.8,119.2c1,5.9,6.1,10,11.8,10
			c0.7,0,1.3-0.1,2-0.2C478.792,213.569,483.192,207.369,482.092,200.769z"/>
	</g>
</g>
<g>
</g>
<g>
</g>
<g>
</g>
<g>
</g>
<g>
</g>
<g>
</g>
<g>
</g>
<g>
</g>
<g>
</g>
<g>
</g>
<g>
</g>
<g>
</g>
<g>
</g>
<g>
</g>
<g>
</g>
</svg>
