<svg id="Layer_1" enable-background="new 0 0 512 512" height="512" viewBox="0 0 512 512" width="512" xmlns="http://www.w3.org/2000/svg"><g id="XMLID_1200_"><g id="XMLID_1737_"><path id="XMLID_1823_" d="m462 40h-412c-27.57 0-50 22.43-50 50v332c0 27.57 22.43 50 50 50h412c27.57 0 50-22.43 50-50v-332c0-27.57-22.43-50-50-50zm-298 366v46h-62v-46zm20 0h62v46h-62zm82 0h62v46h-62zm82 0h62v46h-62zm-328-20v-260h472v260zm328-280v-46h62v46zm-20 0h-62v-46h62zm-82 0h-62v-46h62zm-82 0h-62v-46h62zm328-16v16h-62v-46h32c16.542 0 30 13.458 30 30zm-442-30h32v46h-62v-16c0-16.542 13.458-30 30-30zm-30 362v-16h62v46h-32c-16.542 0-30-13.458-30-30zm442 30h-32v-46h62v16c0 16.542-13.458 30-30 30z"/><path id="XMLID_1962_" d="m230.52 306.299c3.688 2.016 7.748 3.018 11.802 3.018 4.624 0 9.238-1.304 13.274-3.891l44.801-28.716c7.091-4.545 11.325-12.288 11.325-20.71s-4.234-16.166-11.325-20.71l-44.801-28.716c-7.575-4.856-17.185-5.189-25.076-.873-7.895 4.317-12.798 12.587-12.798 21.584v57.431c0 8.996 4.903 17.266 12.798 21.583zm7.202-79.014c0-2.373 1.499-3.547 2.393-4.036.502-.274 1.288-.593 2.235-.593.74 0 1.577.194 2.453.756l44.801 28.716c1.843 1.181 2.118 2.933 2.118 3.873s-.275 2.691-2.118 3.873l-44.801 28.716c-1.997 1.279-3.794.652-4.688.163s-2.393-1.663-2.393-4.036z"/><path id="XMLID_1963_" d="m225.893 157.479c-5.283 1.61-8.261 7.198-6.65 12.481 1.609 5.284 7.205 8.263 12.48 6.65 29.438-8.97 61.229-1.039 82.967 20.7 15.676 15.677 24.31 36.52 24.31 58.69s-8.634 43.013-24.311 58.69c-15.675 15.676-36.519 24.31-58.689 24.31s-43.014-8.634-58.689-24.311c-21.739-21.739-29.671-53.53-20.7-82.967 1.61-5.283-1.367-10.871-6.65-12.481-5.281-1.608-10.871 1.367-12.48 6.651-11.13 36.521-1.286 75.965 25.688 102.939 19.453 19.455 45.318 30.169 72.831 30.169s53.378-10.714 72.832-30.168 30.168-45.32 30.168-72.832-10.714-53.378-30.168-72.832c-26.975-26.975-66.416-36.816-102.939-25.689z"/><path id="XMLID_1968_" d="m190.24 200.24c2.63 0 5.21-1.07 7.069-2.93 1.86-1.86 2.931-4.44 2.931-7.07s-1.07-5.21-2.931-7.07c-1.859-1.86-4.439-2.93-7.069-2.93-2.631 0-5.211 1.07-7.07 2.93-1.86 1.86-2.93 4.44-2.93 7.07s1.069 5.21 2.93 7.07c1.859 1.86 4.439 2.93 7.07 2.93z"/></g></g></svg>